<?xml version="1.0" standalone="no"?>
<!DOCTYPE svg PUBLIC "-//W3C//DTD SVG 20010904//EN"
 "http://www.w3.org/TR/2001/REC-SVG-20010904/DTD/svg10.dtd">
<svg version="1.0" xmlns="http://www.w3.org/2000/svg"
 width="500.000000pt" height="500.000000pt" viewBox="0 0 500.000000 500.000000"
 preserveAspectRatio="xMidYMid meet">
<metadata>
Created by potrace 1.14, written by Peter Selinger 2001-2017
</metadata>
<g transform="translate(0.000000,500.000000) scale(0.100000,-0.100000)"
fill="#000000" stroke="none">
<path d="M0 4984 c0 -12 6 -15 23 -10 12 3 34 6 50 6 15 0 27 5 27 10 0 6 -22
10 -50 10 -39 0 -50 -3 -50 -16z"/>
<path d="M170 4985 c0 -8 4 -15 9 -15 5 0 14 7 21 15 10 13 9 15 -9 15 -12 0
-21 -6 -21 -15z"/>
<path d="M1734 4985 c-3 -8 -3 -18 0 -24 4 -5 2 -12 -3 -16 -6 -3 -13 -26 -17
-50 -3 -25 -10 -42 -15 -39 -5 3 -6 -3 -2 -12 4 -11 2 -15 -4 -11 -6 4 -8 -2
-6 -16 2 -12 -4 -49 -15 -82 -10 -33 -34 -115 -52 -182 -19 -67 -38 -119 -42
-117 -4 3 -8 -13 -8 -36 0 -29 -3 -39 -12 -34 -7 5 -9 2 -5 -9 3 -8 -21 -98
-54 -199 -32 -101 -66 -210 -75 -243 -8 -33 -27 -89 -41 -124 -27 -70 -27 -86
6 -196 64 -211 147 -664 169 -925 8 -87 24 -118 82 -157 39 -25 44 -26 139
-20 88 5 100 4 106 -11 67 -167 246 -640 320 -847 69 -193 84 -227 118 -266
44 -49 70 -64 168 -98 114 -40 218 -81 315 -126 43 -20 120 -52 169 -70 50
-18 135 -52 190 -75 55 -23 188 -77 295 -120 107 -42 239 -96 292 -119 53 -22
100 -41 103 -41 3 0 91 -36 195 -80 104 -44 224 -94 267 -111 43 -17 97 -39
120 -50 23 -10 44 -19 47 -19 3 0 29 -11 58 -24 29 -13 141 -61 248 -106 107
-45 198 -84 203 -87 4 -2 7 24 7 59 l0 63 -88 33 c-224 86 -384 148 -462 179
-47 19 -173 68 -280 109 -226 88 -516 202 -545 215 -11 5 -39 16 -63 24 -24 8
-125 48 -225 89 -100 41 -243 98 -317 126 -74 29 -144 56 -155 61 -11 4 -63
25 -115 45 -52 20 -101 42 -108 48 -10 10 60 14 335 20 191 3 506 11 698 17
193 6 528 13 745 17 441 8 421 11 477 -62 18 -22 48 -59 67 -81 l36 -40 -1
137 -1 138 -44 0 c-49 0 -54 4 -204 170 -41 46 -87 96 -102 112 -16 16 -35 40
-44 53 -15 23 -15 25 1 31 9 4 85 1 168 -5 84 -7 169 -14 190 -15 l37 -3 0 43
c0 32 -4 44 -17 48 -10 3 -92 8 -183 11 -91 4 -190 10 -221 15 -65 10 -151 48
-146 64 2 6 129 52 283 101 l279 91 3 38 c3 29 0 37 -10 34 -101 -38 -611
-198 -632 -198 -17 0 -43 12 -65 30 -47 40 -53 45 -72 56 -9 5 -32 21 -50 36
-73 57 -320 242 -436 325 -67 48 -119 91 -117 94 2 4 61 10 131 13 71 4 209
11 308 16 225 12 753 39 860 43 l80 4 3 126 3 127 -43 1 c-24 1 -36 3 -27 6
11 2 15 11 12 22 -3 14 3 20 26 24 l31 6 -1 518 c0 285 -3 512 -6 506 -7 -20
-37 -15 -63 10 -14 12 -27 22 -30 23 -20 3 -40 18 -40 31 0 8 -4 12 -9 8 -5
-3 -17 2 -25 11 -9 8 -16 13 -16 9 0 -3 -10 3 -22 15 -12 11 -27 20 -33 20
-17 0 -61 40 -57 52 1 5 -3 6 -9 3 -6 -4 -25 6 -42 23 -18 16 -56 41 -84 54
-29 14 -50 28 -47 31 4 3 -6 9 -20 13 -18 4 -25 11 -22 21 4 9 -4 15 -23 19
-16 4 -31 14 -34 24 -3 10 -18 21 -36 25 -17 4 -44 17 -59 29 -15 13 -37 26
-48 30 -15 5 -20 12 -17 26 4 14 0 19 -16 17 -12 -1 -21 -6 -21 -12 0 -5 -11
3 -25 19 -14 17 -32 31 -39 32 -7 1 -26 12 -40 25 -15 13 -42 31 -59 39 -18 8
-36 25 -42 38 -5 12 -15 22 -20 22 -6 0 -30 9 -53 20 -22 11 -47 20 -54 21 -7
0 -4 4 7 9 19 8 19 9 -2 9 -12 1 -28 7 -35 15 -8 7 -24 17 -36 20 -33 11 -27
23 26 47 26 12 61 28 79 36 18 8 36 12 42 9 5 -4 14 1 19 10 14 25 81 21 175
-10 43 -15 83 -23 89 -20 7 4 8 2 4 -4 -4 -7 -1 -12 8 -12 9 0 16 -4 16 -10 0
-6 10 -5 26 2 18 8 27 9 32 1 4 -6 23 -13 42 -16 71 -11 130 -31 130 -43 0 -7
4 -16 10 -19 5 -3 7 0 4 9 -5 12 -1 13 23 5 15 -5 47 -14 70 -19 23 -6 49 -18
58 -26 9 -10 33 -16 63 -16 26 0 57 -7 70 -15 12 -7 27 -11 32 -8 5 3 15 -4
24 -16 12 -18 18 -20 30 -10 12 10 17 8 26 -10 8 -15 14 -18 19 -10 6 9 11 8
20 -3 7 -8 9 -21 5 -27 -5 -9 -2 -10 10 -6 10 4 20 7 22 7 2 0 4 99 4 220 l0
220 -275 0 -275 0 0 -36 c0 -27 5 -37 20 -41 15 -4 20 -14 20 -39 0 -38 14
-42 63 -21 37 16 210 11 204 -6 -2 -8 -33 -13 -80 -15 -42 -2 -77 -7 -77 -12
0 -9 -34 -8 -60 3 -8 3 -28 8 -45 10 -67 11 -101 19 -117 28 -9 5 -21 8 -25 7
-13 -3 -127 25 -137 34 -6 4 -19 8 -30 8 l-20 0 20 14 c11 8 38 17 60 21 46 8
84 25 84 37 0 5 -74 7 -172 4 -211 -6 -165 -6 -408 0 -194 4 -206 3 -230 -16
-21 -16 -22 -20 -7 -20 10 0 20 6 23 14 4 10 15 11 42 6 44 -9 222 -50 239
-56 16 -4 5 -34 -12 -34 -7 0 -15 -4 -17 -8 -1 -4 -23 -17 -47 -29 -43 -19
-47 -19 -80 -4 -48 22 -143 84 -160 104 -7 10 -20 17 -27 17 -17 0 -18 17 -1
23 6 3 -194 5 -445 6 -297 1 -458 -2 -458 -8 0 -6 -35 -48 -79 -93 -43 -46
-94 -101 -112 -122 -19 -21 -51 -57 -72 -80 -21 -23 -51 -56 -65 -75 -45 -57
-73 -82 -84 -75 -7 4 -8 2 -4 -4 4 -7 -30 -49 -84 -102 -49 -49 -90 -87 -90
-84 0 3 -17 -14 -38 -38 -84 -95 -107 -119 -130 -134 l-24 -16 5 58 c4 33 9
100 13 149 4 50 8 95 9 100 1 6 6 25 10 42 4 18 14 38 21 44 8 6 14 22 14 35
0 12 5 26 10 29 6 3 10 15 10 26 0 10 5 19 12 19 6 0 9 3 5 6 -3 3 9 33 27 67
17 34 40 83 51 109 10 26 22 45 26 42 4 -2 5 6 1 18 -3 11 -1 19 4 16 5 -4 10
5 10 19 2 32 4 33 61 43 34 5 -9 8 -145 9 -160 1 -194 -1 -198 -14z m145 -22
c1 18 35 24 45 8 4 -5 -10 -43 -29 -85 -19 -42 -35 -80 -35 -85 0 -6 -4 -12
-9 -15 -8 -5 -7 35 3 129 2 17 5 39 6 50 l1 20 9 -20 c7 -17 9 -17 9 -2z
m1066 -349 l7 -141 -38 -29 c-39 -30 -258 -145 -301 -158 -17 -6 -23 -3 -23 8
0 9 4 16 9 16 5 0 30 42 57 93 26 50 77 146 114 212 37 66 79 142 93 168 15
26 35 60 44 74 l18 27 6 -64 c4 -36 10 -128 14 -206z m1709 201 c-17 -14 -15
-15 31 -9 40 5 54 3 64 -10 7 -9 26 -16 42 -16 16 0 29 -4 29 -9 0 -19 -158 7
-188 32 -11 9 -11 12 5 18 30 12 38 10 17 -6z m-1534 -145 c0 -5 4 -10 9 -10
5 0 14 -12 20 -27 6 -16 15 -38 21 -50 8 -20 5 -24 -35 -42 -92 -41 -85 -47
-85 81 0 62 3 123 6 136 6 21 9 19 35 -27 16 -28 29 -55 29 -61z m1748 74
c-10 -10 -28 6 -28 24 0 15 1 15 17 -1 9 -9 14 -19 11 -23z m32 15 c-7 -11
-14 -18 -17 -15 -3 3 0 12 7 21 18 21 23 19 10 -6z m-2305 -76 c-15 -32 -36
-75 -46 -96 -11 -21 -19 -46 -19 -57 0 -11 -4 -20 -8 -20 -5 0 -15 -17 -23
-37 -8 -20 -19 -46 -26 -57 -34 -61 -93 -184 -93 -193 0 -25 -90 -100 -160
-135 -41 -20 -156 -76 -255 -123 -99 -48 -184 -90 -188 -92 -4 -3 -6 14 -3 37
5 46 -18 22 291 301 88 79 247 233 354 341 107 109 197 196 199 193 3 -2 -8
-30 -23 -62z m641 21 c-4 -9 -9 -15 -11 -12 -3 3 -3 13 1 22 4 9 9 15 11 12 3
-3 3 -13 -1 -22z m56 -31 c26 -23 23 -43 -7 -43 -23 0 -45 24 -45 49 0 17 31
13 52 -6z m1435 1 c-3 -3 -12 -4 -19 -1 -8 3 -5 6 6 6 11 1 17 -2 13 -5z
m-1034 -26 c18 -13 44 -34 60 -47 15 -14 27 -22 27 -18 0 7 48 -22 195 -118
44 -28 134 -87 200 -129 66 -43 146 -96 177 -117 31 -21 60 -39 63 -39 5 0
483 -320 521 -350 20 -15 22 -24 19 -94 -2 -44 -9 -84 -14 -89 -6 -6 -11 -26
-11 -45 0 -39 -20 -112 -30 -112 -4 0 -10 3 -14 7 -4 4 -13 8 -19 9 -31 3 -58
18 -53 29 6 16 -17 37 -70 64 -22 12 -54 36 -71 54 -29 30 -123 117 -154 143
-8 6 -21 20 -30 30 -9 11 -55 55 -103 99 -48 44 -149 141 -225 215 -76 74
-195 188 -265 253 -69 66 -126 125 -126 132 0 7 -20 26 -45 42 -25 15 -45 34
-45 41 0 7 -8 16 -17 19 -18 7 -33 22 -33 36 0 14 31 7 63 -15z m-1976 -90
c-3 -8 -6 -5 -6 6 -1 11 2 17 5 13 3 -3 4 -12 1 -19z m1776 -78 c70 -71 253
-249 327 -317 19 -17 111 -108 204 -202 92 -94 172 -171 177 -171 4 0 6 -7 3
-15 -4 -8 -10 -15 -15 -15 -10 0 -200 72 -256 96 -17 8 -35 14 -39 14 -4 0
-26 8 -48 19 -23 10 -68 28 -101 41 -166 61 -168 63 -210 154 -20 45 -41 88
-46 96 -13 22 -27 54 -27 64 0 5 -4 12 -9 15 -14 9 -73 132 -73 152 0 9 -6 19
-14 22 -7 3 -17 18 -21 34 -3 15 -11 31 -17 34 -17 11 1 47 25 51 56 8 68 2
140 -72z m-1793 -9 c0 -11 -12 -41 -26 -68 -14 -26 -24 -41 -21 -33 2 8 10 39
17 68 14 52 30 70 30 33z m1576 -79 c23 -46 47 -88 52 -95 16 -21 153 -289
150 -293 -4 -3 -144 -24 -303 -44 -49 -7 -115 -16 -144 -21 -30 -5 -59 -5 -63
-1 -5 5 -1 65 7 133 9 68 21 159 26 203 11 92 31 132 74 146 16 5 52 21 80 35
27 14 56 24 64 23 8 -2 33 -40 57 -86z m-365 -67 c1 -11 -16 -160 -33 -295 -6
-47 -11 -90 -11 -97 0 -6 -23 -14 -51 -18 -28 -4 -112 -15 -186 -25 -74 -10
-157 -21 -185 -24 -56 -7 -85 4 -68 26 12 15 63 107 106 191 36 70 65 94 183
148 49 22 118 56 154 75 64 33 91 39 91 19z m-1280 -32 c-12 -20 -14 -14 -5
12 4 9 9 14 11 11 3 -2 0 -13 -6 -23z m49 -160 c-3 -38 -11 -77 -17 -88 -16
-27 -113 -122 -113 -110 0 14 123 265 129 265 4 0 4 -30 1 -67z m600 -100 c0
-5 -17 -39 -37 -78 -19 -38 -41 -80 -47 -93 -14 -28 -42 -35 -231 -57 -82 -9
-163 -19 -179 -22 -63 -13 -8 21 183 113 108 52 219 105 246 118 54 27 65 30
65 19z m1489 -213 c562 -218 618 -242 627 -265 3 -8 15 -15 25 -15 10 0 19 -4
19 -9 0 -5 26 -28 58 -51 63 -48 63 -48 156 -140 36 -36 66 -70 66 -76 0 -26
-37 -43 -100 -45 -36 -1 -67 -6 -70 -10 -5 -7 -98 7 -505 79 -126 23 -273 48
-325 56 -52 9 -198 34 -325 56 -126 22 -288 50 -360 61 -71 12 -134 25 -139
30 -6 5 0 65 14 151 30 186 29 180 34 185 2 3 94 16 203 29 109 13 227 28 263
33 113 16 168 6 359 -69z m-2134 -10 c-10 -11 -25 -20 -33 -20 -9 0 -6 7 9 20
31 25 47 26 24 0z m1210 -32 c-3 -24 -13 -79 -20 -123 -8 -44 -17 -97 -20
-118 -5 -32 -9 -36 -28 -32 -12 2 -134 23 -272 45 -137 23 -256 46 -263 52
-10 9 -6 22 19 66 55 98 40 92 306 123 317 36 286 38 278 -13z m-715 -51 c0
-10 -35 -74 -47 -85 -15 -16 -50 -14 -208 11 -55 9 -104 17 -108 17 -5 0 -7 6
-5 13 7 19 368 62 368 44z m-570 -162 c27 -13 52 -30 56 -36 4 -7 6 -42 4 -78
-2 -36 -3 -79 -4 -94 0 -27 0 -28 -16 -7 -8 11 -24 41 -34 68 -23 57 -55 131
-68 155 -12 24 3 22 62 -8z m765 -85 c49 -12 188 -36 315 -56 154 -23 143 -17
135 -77 -10 -80 -16 -111 -20 -116 -3 -2 -49 14 -102 36 -54 23 -127 51 -161
63 -85 29 -263 106 -258 111 3 2 -8 5 -22 6 -15 0 -28 6 -30 12 -2 6 -8 9 -13
5 -14 -8 -11 3 6 20 17 16 67 15 150 -4z m-475 -58 c47 -24 89 -47 93 -51 4
-4 -31 -85 -78 -179 -47 -95 -85 -176 -85 -181 0 -6 -5 -13 -10 -16 -6 -4 -22
19 -36 52 -26 58 -26 58 -15 198 6 77 12 161 13 187 2 53 -8 54 118 -10z m110
18 c8 -5 11 -10 5 -10 -5 0 -17 5 -25 10 -8 5 -10 10 -5 10 6 0 17 -5 25 -10z
m262 -96 c56 -20 108 -39 113 -43 8 -6 215 -88 338 -134 38 -14 60 -48 51 -81
-3 -14 -10 -26 -14 -26 -5 0 -114 53 -242 118 -128 64 -253 126 -278 136 -48
21 -80 44 -80 58 0 11 -4 12 112 -28z m870 1 c112 -19 291 -50 398 -70 107
-20 222 -41 255 -46 163 -25 265 -46 258 -52 -4 -5 0 -5 9 -2 9 4 42 1 75 -5
32 -7 73 -15 92 -19 19 -3 36 -11 38 -18 4 -11 -18 -18 -84 -26 -11 -2 -27 -8
-35 -14 -7 -6 -44 -15 -83 -21 -38 -6 -124 -23 -190 -37 -66 -13 -132 -25
-147 -25 -15 0 -29 -4 -32 -9 -3 -4 -31 -7 -63 -5 -304 14 -329 16 -358 34
-32 19 -291 130 -305 130 -4 0 -23 7 -42 14 l-35 15 9 63 c15 111 19 128 28
128 4 0 100 -16 212 -35z m-694 -195 c166 -82 302 -152 302 -154 0 -11 -30
-119 -34 -124 -7 -6 -323 -84 -521 -128 -88 -19 -181 -41 -207 -49 -56 -16
-57 -15 -89 77 l-24 67 28 53 c15 29 52 100 83 158 31 58 71 132 88 165 42 80
45 85 59 85 7 0 149 -67 315 -150z m-819 61 c23 -69 27 -106 11 -96 -11 7 -25
57 -35 125 -9 59 -2 50 24 -29z m1546 -208 c18 -10 16 -12 -18 -18 -33 -6 -44
-2 -107 41 -38 26 -70 48 -70 50 0 3 175 -62 195 -73z m-240 21 c33 -25 66
-49 75 -54 12 -7 13 -11 2 -21 -10 -11 -27 -6 -87 24 -73 37 -82 48 -69 81 9
23 14 21 79 -30z m1765 -74 c0 -5 -12 -10 -27 -11 l-28 -1 25 -9 c16 -5 2 -6
-40 -2 -36 3 -83 6 -105 5 l-40 0 35 9 c19 4 42 6 50 4 8 -3 22 0 30 5 20 13
100 13 100 0z m-1831 -11 c41 -14 39 -25 -5 -34 -42 -7 -48 -4 -39 24 7 25 4
24 44 10z m453 -9 c43 0 31 -9 -18 -14 -21 -2 -47 -7 -56 -11 -13 -5 -18 -3
-18 8 0 16 26 27 48 21 8 -2 28 -4 44 -4z m-1558 -26 c4 -15 5 -29 1 -32 -3
-3 -5 1 -5 9 0 11 -2 11 -10 -1 -7 -11 -10 -7 -10 18 0 38 15 42 24 6z m2669
-33 c27 -1 46 -5 43 -10 -3 -4 -17 -6 -31 -3 -15 2 -25 0 -25 -7 0 -7 -6 -11
-12 -10 -15 3 -147 -9 -238 -21 -224 -31 -681 -62 -696 -47 -8 7 21 14 91 22
33 3 92 12 130 20 233 47 387 63 575 59 63 -1 137 -3 163 -3z m114 -17 c-3 -3
-12 -4 -19 -1 -8 3 -5 6 6 6 11 1 17 -2 13 -5z m-2702 -151 c8 -20 14 -38 12
-39 -2 -2 -18 -7 -35 -10 -29 -6 -32 -4 -32 18 0 21 24 68 35 68 3 0 12 -16
20 -37z m2674 17 c11 -6 -16 -9 -79 -9 -53 1 -82 4 -66 8 50 10 128 11 145 1z
m-1240 -228 c-30 -38 -78 -98 -107 -133 -30 -35 -61 -73 -69 -84 -9 -11 -41
-50 -72 -86 -31 -37 -63 -75 -71 -85 -26 -32 -175 -209 -180 -214 -3 -3 -68
-78 -144 -167 -76 -90 -143 -163 -148 -163 -4 0 -6 10 -3 23 86 382 228 932
243 945 10 8 54 12 126 13 61 1 192 6 291 13 99 6 182 10 184 9 2 -1 -20 -33
-50 -71z m297 43 c27 -19 76 -54 109 -77 33 -23 66 -48 74 -55 7 -8 86 -69
175 -135 157 -119 259 -196 323 -247 17 -14 30 -28 27 -32 -2 -4 -77 -31 -167
-59 -89 -28 -173 -55 -187 -60 -14 -5 -79 -25 -145 -45 -66 -21 -145 -45 -175
-55 -104 -34 -255 -82 -315 -100 -99 -30 -337 -104 -562 -174 -117 -36 -219
-66 -228 -66 -19 0 -26 -10 156 206 166 195 235 278 284 339 22 28 48 59 58
70 11 11 31 36 45 55 15 19 63 78 107 131 44 53 112 136 150 184 126 157 124
155 176 155 38 0 57 -7 95 -35z m-961 -17 c3 -8 -41 -200 -98 -428 -57 -228
-109 -441 -116 -472 -7 -32 -16 -58 -21 -58 -9 0 -5 -11 -82 200 -33 91 -66
179 -73 195 -22 51 -171 437 -190 492 -11 29 -16 55 -13 58 3 4 95 9 205 13
381 14 383 14 388 0z m1783 -604 c22 -15 22 -17 6 -35 -9 -10 -27 -19 -38 -19
-12 0 -102 -20 -201 -44 -292 -71 -481 -116 -491 -116 -31 1 183 76 456 160
58 18 130 41 160 51 68 23 80 23 108 3z m199 -220 c103 -109 207 -244 196
-254 -4 -5 -80 -11 -168 -14 -88 -4 -218 -8 -290 -11 -164 -7 -699 -23 -1000
-30 -126 -3 -318 -8 -426 -11 -127 -3 -199 -2 -203 5 -8 13 -1 15 164 51 52
11 172 38 265 60 498 118 583 138 630 145 22 4 92 20 155 35 63 15 158 37 210
49 52 12 142 33 200 46 157 37 169 34 267 -71z"/>
<path d="M3758 4563 c7 -3 16 -2 19 1 4 3 -2 6 -13 5 -11 0 -14 -3 -6 -6z"/>
<path d="M13 4953 c-7 -2 -13 -8 -13 -12 0 -8 45 -31 60 -31 18 0 10 20 -7 21
-11 0 -13 3 -5 6 6 2 12 9 12 14 0 9 -26 11 -47 2z"/>
<path d="M3596 4931 c-3 -4 6 -6 19 -3 14 2 25 6 25 8 0 8 -39 4 -44 -5z"/>
<path d="M4405 4920 c3 -5 15 -10 26 -10 10 0 19 5 19 10 0 6 -12 10 -26 10
-14 0 -23 -4 -19 -10z"/>
<path d="M16 4874 c-9 -24 -7 -28 9 -14 17 14 20 30 6 30 -5 0 -12 -7 -15 -16z"/>
<path d="M4901 4584 c0 -11 3 -14 6 -6 3 7 2 16 -1 19 -3 4 -6 -2 -5 -13z"/>
<path d="M4925 4560 c-3 -5 1 -10 10 -10 9 0 13 5 10 10 -3 6 -8 10 -10 10 -2
0 -7 -4 -10 -10z"/>
<path d="M4900 4546 c0 -9 -7 -16 -16 -16 -30 0 -8 -23 24 -25 18 -2 39 -8 46
-14 12 -10 15 -8 19 11 l4 23 2 -22 c0 -13 6 -23 11 -23 6 0 10 15 8 34 -1 27
-5 33 -16 27 -16 -9 -50 -3 -69 12 -9 7 -13 5 -13 -7z"/>
<path d="M4838 4543 c7 -3 16 -2 19 1 4 3 -2 6 -13 5 -11 0 -14 -3 -6 -6z"/>
</g>
</svg>
